# xmcd
#
# Track frame offsets: 
#        150
#        14839
#        40944
#        55275
#        84076
#        101271
#        119272
#        135339
#        156639
#        182811
#        199894
#
# Disc length: 2918 seconds
#
# Revision: 0
# Processed by: cddbd v1.5.2PL0 Copyright (c) Steve Scherf et al.
# Submitted via: ExactAudioCopy v0.90b4
#
DISCID=910b640b
DTITLE=Malted Milk - Sweet Soul Blues
DYEAR=2009
DGENRE=Funk
TTITLE0=Brand new  thing
TTITLE1=Hang in on
TTITLE2=Straight Woman Blues
TTITLE3=Them fair weather friends
TTITLE4=Da bump
TTITLE5=I hear the love chimes
TTITLE6=Dresses too short
TTITLE7=Don't burn down the bridge
TTITLE8=All i do
TTITLE9=Hard working woman
TTITLE10=Hard time killin' floor blues
EXTD=
EXTT0=
EXTT1=
EXTT2=
EXTT3=
EXTT4=
EXTT5=
EXTT6=
EXTT7=
EXTT8=
EXTT9=
EXTT10=
PLAYORDER=
